<?xml version="1.0" encoding="utf-8"?>
<!-- Generator: Adobe Illustrator 23.1.1, SVG Export Plug-In . SVG Version: 6.00 Build 0)  -->
<svg version="1.1" id="Capa_1" xmlns="http://www.w3.org/2000/svg" xmlns:xlink="http://www.w3.org/1999/xlink" x="0px" y="0px"
	 viewBox="0 0 471.7 471.7" style="enable-background:new 0 0 471.7 471.7;" xml:space="preserve">
<style type="text/css">
	.st0{fill:none;stroke:#000000;stroke-width:19;stroke-linejoin:round;stroke-miterlimit:10;}
</style>
<path class="st0" d="M340.8,146.3c-13.1-13.1-30.5-20.3-49-20.3s-35.9,7.2-49,20.3l-6.8,6.8l-7-7c-13.1-13.1-30.6-20.4-49.1-20.4
	c-18.5,0-35.9,7.2-48.9,20.3c-13.1,13.1-20.3,30.5-20.3,49c0,18.5,7.3,35.9,20.4,49l99.7,99.7c1.4,1.4,3.2,2.1,5,2.1s3.7-0.7,5-2.1
	l99.9-99.5c13.1-13.1,20.3-30.5,20.3-49C361.1,176.8,353.9,159.4,340.8,146.3z"/>
</svg>
